<svg xmlns="http://www.w3.org/2000/svg" width="66" height="65" viewBox="0 0 66 65">
  <g id="book_mark" transform="translate(-34 -751)">
    <rect id="Rectangle_14" data-name="Rectangle 14" width="66" height="65" rx="8" transform="translate(34 751)" fill="#dcdcdc"/>
    <path id="Path_5" data-name="Path 5" d="M93.025,0H80.9a.594.594,0,0,0-.566.618V20.467a.621.621,0,0,0,.349.571.524.524,0,0,0,.216.047.543.543,0,0,0,.4-.181l5.663-6.18,5.663,6.18a.532.532,0,0,0,.617.134.621.621,0,0,0,.349-.571V.618A.594.594,0,0,0,93.025,0ZM86.962,13.233a.543.543,0,0,0-.4.181l-5.1,5.562V1.235H92.459v17.74l-5.1-5.562A.543.543,0,0,0,86.962,13.233Z" transform="translate(-20.148 773.87)" fill="#696969" stroke="#696969" stroke-width="0.3"/>
  </g>
</svg>
